PathFileType	4	(X/Y/Z)	E:\Marcel_BSc\Ayumi_22_01_2025\22-01-2025\conv_dl_1.trc
DataRate	CameraRate	NumFrames	NumMarkers	Units	OrigDataRate	OrigDataStartFrame	OrigNumFrames
200.0	200.0	4	47	mm	200.0	612	2445	
Frame#	Time	FHD			LBHD			RBHD			RBAR			LBAR			RSACR			LSACR			USACR			C7			CLAV			T10			RSHO			LSHO			LTHI1			LTHI3			LTHI2			LTIB1			LTIB2			LTIB3			LMMAL			LLMAL			LHEE			LMT1			LMT5			LMT3			RTHI1			RTHI2			RTHI3			RTIB1			RTIB3			RTIB2			RLMAL			RMMAL			RHEE			RMT5			RMT1			RMT3			LDUPA			LMUPA			LUUPA			LRAD			RUL			RRAD			RUFIN			RMUPA			RDUPA			RUUPA			
		X1	Y1	Z1	X2	Y2	Z2	X3	Y3	Z3	X4	Y4	Z4	X5	Y5	Z5	X6	Y6	Z6	X7	Y7	Z7	X8	Y8	Z8	X9	Y9	Z9	X10	Y10	Z10	X11	Y11	Z11	X12	Y12	Z12	X13	Y13	Z13	X14	Y14	Z14	X15	Y15	Z15	X16	Y16	Z16	X17	Y17	Z17	X18	Y18	Z18	X19	Y19	Z19	X20	Y20	Z20	X21	Y21	Z21	X22	Y22	Z22	X23	Y23	Z23	X24	Y24	Z24	X25	Y25	Z25	X26	Y26	Z26	X27	Y27	Z27	X28	Y28	Z28	X29	Y29	Z29	X30	Y30	Z30	X31	Y31	Z31	X32	Y32	Z32	X33	Y33	Z33	X34	Y34	Z34	X35	Y35	Z35	X36	Y36	Z36	X37	Y37	Z37	X38	Y38	Z38	X39	Y39	Z39	X40	Y40	Z40	X41	Y41	Z41	X42	Y42	Z42	X43	Y43	Z43	X44	Y44	Z44	X45	Y45	Z45	X46	Y46	Z46	X47	Y47	Z47	
612	3.05	-231.11366	1016.8969	-592.49872	-209.44237	1024.2201	-532.91736	-187.17206	1042.8555	-661.15271	156.28204	240.34819	-1714.0767	180.95711	251.34575	508.77524	451.09674	887.7442	-671.70239	449.93768	887.14227	-599.15131	439.51379	893.17218	-634.45746	36.010609	1098.9885	-587.18665	36.564625	939.33148	-604.44427	297.46997	985.80139	-618.52087	-6.435061	965.20813	-741.71185	19.441824	950.7948	-448.21854	316.97653	557.03119	-439.34772	289.84003	500.58716	-457.96991	255.30634	535.28412	-444.68329	224.36551	235.31902	-437.72675	274.78534	238.38	-439.60748	250.86237	177.60181	-445.77689	261.04312	75.116325	-530.19806	275.68405	71.767136	-454.00574	319.98581	36.399979	-497.46704	121.91862	44.865032	-491.67841	146.83488	28.734602	-414.72794	122.32076	43.348297	-456.53131	312.83591	555.56628	-828.14105	251.05605	534.67401	-818.98853	287.3212	499.24884	-806.36682	217.36508	270.79874	-816.78632	244.98155	212.08122	-806.31403	267.77753	273.14746	-816.2511	271.41965	74.153961	-783.45959	242.67177	81.05394	-709.50781	317.00949	32.017536	-736.67322	138.92244	33.124207	-807.37817	116.67492	42.338287	-744.9292	120.94788	40.60194	-775.82935	160.26044	798.37433	-375.22507	111.72935	787.95917	-381.78186	98.606796	848.36304	-383.90744	169.76321	475.14346	-317.14996	131.71445	512.22559	-932.09711	117.4674	493.60089	-874.0979	109.20811	427.94803	-889.26843	60.263493	890.48077	-836.01434	80.407646	836.0976	-859.10492	103.52613	910.81549	-848.36414
613	3.055	-231.74091	1012.7286	-592.59839	-210.06332	1020.1999	-532.94635	-187.93008	1038.9099	-661.17615	156.26576	240.36929	-1714.0564	180.95964	251.34906	508.76324	451.15372	886.61877	-671.68652	450.00522	885.98566	-599.11798	439.60043	891.9906	-634.36652	34.8242	1095.7295	-587.26508	36.306602	936.09277	-604.50201	296.9299	984.03668	-618.52405	-7.0589094	961.53815	-741.5708	18.953606	947.23615	-448.60526	316.96811	556.56531	-439.38602	289.49805	500.16223	-458.17526	255.22766	535.013	-444.73999	223.93628	235.19148	-438.33066	274.58914	238.41818	-439.64157	250.68188	177.6123	-445.81473	261.03851	75.105537	-530.19214	275.6582	71.792038	-453.98715	320.01129	36.398392	-497.4624	121.47289	44.855457	-491.99002	146.81363	28.748381	-414.73135	122.32302	43.332409	-456.51093	313.13068	554.77612	-828.17926	250.89336	534.60315	-819.04144	287.14963	498.96832	-806.40228	217.15306	270.69113	-816.88141	244.85605	212.03256	-806.35638	267.56479	273.1239	-816.31012	271.40869	74.151215	-783.49213	242.6281	81.069374	-709.54205	317.01157	32.011887	-736.68524	138.94519	33.090881	-807.39856	116.6722	42.336216	-744.94855	120.97498	40.566536	-775.83148	159.90527	795.10443	-375.62888	111.35523	784.55914	-382.25995	97.99556	844.93524	-384.4371	170.1479	471.8584	-318.02264	130.44897	508.07004	-930.58124	116.74684	489.69263	-872.31604	108.3968	423.93777	-887.14349	59.184708	886.67627	-835.81024	79.300636	832.21045	-858.76703	102.3453	907.01208	-848.45349
614	3.06	-232.90562	1008.7853	-592.57141	-210.72162	1016.1931	-532.96643	-188.69669	1035.0045	-661.22247	156.30246	240.33896	-1714.0656	180.95541	251.34447	508.76917	451.28452	885.4071	-671.60492	449.95786	884.95508	-599.02393	439.67627	890.76697	-634.43005	33.731499	1092.5448	-587.29193	36.070427	932.84216	-604.57153	296.4213	982.27197	-618.53497	-7.7719622	958.01666	-741.35034	18.46909	943.78711	-448.92557	316.70581	555.92981	-439.67603	289.2832	499.79248	-458.25424	255.17139	534.72339	-444.80585	223.68808	235.12845	-438.41193	274.43863	238.38181	-439.62393	250.53891	177.55779	-445.83319	261.04965	75.10083	-530.20477	275.63782	71.812576	-453.97549	319.99756	36.436821	-497.44983	121.92213	44.868599	-491.71954	146.81767	28.745773	-414.7359	122.33262	43.338219	-456.53809	312.81738	554.6781	-828.48218	251.39844	533.93634	-820.36786	286.97766	498.64832	-806.48547	216.90527	270.64288	-816.94385	244.70099	212.00835	-806.43475	267.33936	273.09821	-816.41785	271.38498	74.149948	-783.52783	242.63306	81.070938	-709.57983	317.01105	32.039661	-736.68896	138.94965	33.071724	-807.4184	116.67915	42.326916	-744.95197	120.96431	40.566044	-775.84784	159.54698	791.78088	-376.06448	111.05639	781.22107	-382.68594	97.539169	841.52808	-384.76721	170.55171	468.59253	-318.85175	129.16425	503.85147	-929.14099	115.9565	485.70438	-870.6955	107.9072	419.81549	-885.04181	58.047512	883.04248	-835.52783	78.201988	828.37555	-858.47113	101.15505	903.30487	-848.54987
615	3.065	-233.62206	1004.8294	-592.55139	-211.45827	1012.2166	-533.04254	-189.40981	1031.0758	-661.24365	156.31335	240.36432	-1714.0435	180.97852	251.34528	508.77982	451.25067	884.38849	-671.59814	449.99866	883.77246	-598.95465	439.75302	889.91473	-634.43518	32.646862	1089.4023	-587.33813	35.819073	929.66107	-604.65192	295.96313	980.38464	-618.54333	-8.3895769	954.4397	-741.18408	18.043671	940.34161	-449.3028	316.72131	555.56744	-439.60175	289.06815	499.3454	-458.33218	255.03716	534.44971	-444.90668	223.46552	234.90358	-438.51544	274.16757	238.32303	-439.65643	250.42862	177.52074	-445.85443	261.04181	75.082245	-530.20557	275.64587	71.79808	-453.99167	319.98282	36.443291	-497.46194	121.93362	44.84528	-491.74478	146.80161	28.787115	-414.71701	122.32189	43.350044	-456.52505	313.26755	554.58295	-829.55847	251.27455	533.823	-820.41589	286.77771	498.33417	-806.57874	216.67973	270.53387	-816.99854	244.53586	211.97821	-806.51331	267.133	273.05414	-816.52606	271.39032	74.140297	-783.55267	242.61635	81.076393	-709.59802	317.01175	32.022789	-736.69012	138.95355	33.068569	-807.43787	116.68564	42.326023	-744.97443	120.98293	40.541492	-775.85919	159.24277	788.49719	-376.42883	110.71102	777.8446	-383.14865	97.155441	838.19025	-385.07944	171.13858	465.31207	-319.39087	127.83654	499.68387	-927.67719	115.43457	482.04404	-868.71643	107.18995	416.03717	-882.76617	57.049862	879.27911	-835.33539	77.113586	824.59021	-858.14722	100.02623	899.59192	-848.63922
